<mxfile host="app.diagrams.net" agent="Mozilla/5.0 (Windows NT 10.0; Win64; x64) AppleWebKit/537.36 (KHTML, like Gecko) Chrome/131.0.0.0 Safari/537.36" version="24.9.0">
  <diagram name="Page-1" id="yzg5GGAvqMux_fHp615a">
    <mxGraphModel dx="1750" dy="928" grid="1" gridSize="10" guides="1" tooltips="1" connect="1" arrows="1" fold="1" page="1" pageScale="1" pageWidth="827" pageHeight="1169" math="0" shadow="0">
      <root>
        <mxCell id="0" />
        <mxCell id="1" parent="0" />
        <mxCell id="LBzzMZgSNNTSEDT7KpcH-18" value="Open Change Password Page" style="whiteSpace=wrap;strokeWidth=2;" vertex="1" parent="1">
          <mxGeometry x="561" y="180" width="224" height="66" as="geometry" />
        </mxCell>
        <mxCell id="LBzzMZgSNNTSEDT7KpcH-19" value="Is User Logged In?" style="rhombus;strokeWidth=2;whiteSpace=wrap;" vertex="1" parent="1">
          <mxGeometry x="585" y="296" width="176" height="176" as="geometry" />
        </mxCell>
        <mxCell id="LBzzMZgSNNTSEDT7KpcH-20" value="Allow to Proceed to Change Password" style="whiteSpace=wrap;strokeWidth=2;" vertex="1" parent="1">
          <mxGeometry x="406" y="544" width="259" height="66" as="geometry" />
        </mxCell>
        <mxCell id="LBzzMZgSNNTSEDT7KpcH-21" value="Redirect to Login Page" style="whiteSpace=wrap;strokeWidth=2;" vertex="1" parent="1">
          <mxGeometry x="836" y="1202" width="221" height="48" as="geometry" />
        </mxCell>
        <mxCell id="LBzzMZgSNNTSEDT7KpcH-22" value="User enters Current Password and New Password" style="whiteSpace=wrap;strokeWidth=2;" vertex="1" parent="1">
          <mxGeometry x="435" y="660" width="201" height="84" as="geometry" />
        </mxCell>
        <mxCell id="LBzzMZgSNNTSEDT7KpcH-23" value="Submit" style="whiteSpace=wrap;strokeWidth=2;" vertex="1" parent="1">
          <mxGeometry x="367" y="816" width="110" height="48" as="geometry" />
        </mxCell>
        <mxCell id="LBzzMZgSNNTSEDT7KpcH-24" value="Is Current Password Correct?" style="rhombus;strokeWidth=2;whiteSpace=wrap;" vertex="1" parent="1">
          <mxGeometry x="319" y="914" width="206" height="206" as="geometry" />
        </mxCell>
        <mxCell id="LBzzMZgSNNTSEDT7KpcH-25" value="Display Warning: Wrong Password" style="whiteSpace=wrap;strokeWidth=2;" vertex="1" parent="1">
          <mxGeometry x="558" y="1193" width="228" height="66" as="geometry" />
        </mxCell>
        <mxCell id="LBzzMZgSNNTSEDT7KpcH-26" value="Update User Password" style="whiteSpace=wrap;strokeWidth=2;" vertex="1" parent="1">
          <mxGeometry x="290" y="1202" width="218" height="48" as="geometry" />
        </mxCell>
        <mxCell id="LBzzMZgSNNTSEDT7KpcH-27" value="End" style="whiteSpace=wrap;strokeWidth=2;" vertex="1" parent="1">
          <mxGeometry x="630" y="1309" width="86" height="48" as="geometry" />
        </mxCell>
        <mxCell id="LBzzMZgSNNTSEDT7KpcH-28" value="" style="curved=1;startArrow=none;endArrow=block;exitX=0.5;exitY=1;entryX=0.5;entryY=0;rounded=0;" edge="1" parent="1" source="LBzzMZgSNNTSEDT7KpcH-18" target="LBzzMZgSNNTSEDT7KpcH-19">
          <mxGeometry relative="1" as="geometry">
            <Array as="points" />
          </mxGeometry>
        </mxCell>
        <mxCell id="LBzzMZgSNNTSEDT7KpcH-29" value="Yes" style="curved=1;startArrow=none;endArrow=block;exitX=0;exitY=0.95;entryX=0.5;entryY=0;rounded=0;" edge="1" parent="1" source="LBzzMZgSNNTSEDT7KpcH-19" target="LBzzMZgSNNTSEDT7KpcH-20">
          <mxGeometry relative="1" as="geometry">
            <Array as="points">
              <mxPoint x="536" y="508" />
            </Array>
          </mxGeometry>
        </mxCell>
        <mxCell id="LBzzMZgSNNTSEDT7KpcH-30" value="No" style="curved=1;startArrow=none;endArrow=block;exitX=1;exitY=0.72;entryX=0.5;entryY=0;rounded=0;" edge="1" parent="1" source="LBzzMZgSNNTSEDT7KpcH-19" target="LBzzMZgSNNTSEDT7KpcH-21">
          <mxGeometry relative="1" as="geometry">
            <Array as="points">
              <mxPoint x="947" y="508" />
            </Array>
          </mxGeometry>
        </mxCell>
        <mxCell id="LBzzMZgSNNTSEDT7KpcH-31" value="" style="curved=1;startArrow=none;endArrow=block;exitX=0.5;exitY=1;entryX=0.5;entryY=0;rounded=0;" edge="1" parent="1" source="LBzzMZgSNNTSEDT7KpcH-20" target="LBzzMZgSNNTSEDT7KpcH-22">
          <mxGeometry relative="1" as="geometry">
            <Array as="points" />
          </mxGeometry>
        </mxCell>
        <mxCell id="LBzzMZgSNNTSEDT7KpcH-32" value="" style="curved=1;startArrow=none;endArrow=block;exitX=0.2;exitY=1;entryX=0.5;entryY=0;rounded=0;" edge="1" parent="1" source="LBzzMZgSNNTSEDT7KpcH-22" target="LBzzMZgSNNTSEDT7KpcH-23">
          <mxGeometry relative="1" as="geometry">
            <Array as="points">
              <mxPoint x="422" y="780" />
            </Array>
          </mxGeometry>
        </mxCell>
        <mxCell id="LBzzMZgSNNTSEDT7KpcH-33" value="" style="curved=1;startArrow=none;endArrow=block;exitX=0.5;exitY=1.01;entryX=0.5;entryY=0;rounded=0;" edge="1" parent="1" source="LBzzMZgSNNTSEDT7KpcH-23" target="LBzzMZgSNNTSEDT7KpcH-24">
          <mxGeometry relative="1" as="geometry">
            <Array as="points" />
          </mxGeometry>
        </mxCell>
        <mxCell id="LBzzMZgSNNTSEDT7KpcH-34" value="No" style="curved=1;startArrow=none;endArrow=block;exitX=0.99;exitY=1;entryX=0.26;entryY=0;rounded=0;" edge="1" parent="1" source="LBzzMZgSNNTSEDT7KpcH-24" target="LBzzMZgSNNTSEDT7KpcH-25">
          <mxGeometry relative="1" as="geometry">
            <Array as="points">
              <mxPoint x="558" y="1157" />
            </Array>
          </mxGeometry>
        </mxCell>
        <mxCell id="LBzzMZgSNNTSEDT7KpcH-35" value="Yes" style="curved=1;startArrow=none;endArrow=block;exitX=0.42;exitY=1;entryX=0.5;entryY=0;rounded=0;" edge="1" parent="1" source="LBzzMZgSNNTSEDT7KpcH-24" target="LBzzMZgSNNTSEDT7KpcH-26">
          <mxGeometry relative="1" as="geometry">
            <Array as="points">
              <mxPoint x="399" y="1157" />
            </Array>
          </mxGeometry>
        </mxCell>
        <mxCell id="LBzzMZgSNNTSEDT7KpcH-36" value="" style="curved=1;startArrow=none;endArrow=block;exitX=0.5;exitY=1.01;entryX=0;entryY=0.34;rounded=0;" edge="1" parent="1" source="LBzzMZgSNNTSEDT7KpcH-26" target="LBzzMZgSNNTSEDT7KpcH-27">
          <mxGeometry relative="1" as="geometry">
            <Array as="points">
              <mxPoint x="399" y="1284" />
            </Array>
          </mxGeometry>
        </mxCell>
        <mxCell id="LBzzMZgSNNTSEDT7KpcH-37" value="" style="curved=1;startArrow=none;endArrow=block;exitX=0.5;exitY=1.01;entryX=1;entryY=0.34;rounded=0;" edge="1" parent="1" source="LBzzMZgSNNTSEDT7KpcH-21" target="LBzzMZgSNNTSEDT7KpcH-27">
          <mxGeometry relative="1" as="geometry">
            <Array as="points">
              <mxPoint x="947" y="1284" />
            </Array>
          </mxGeometry>
        </mxCell>
        <mxCell id="LBzzMZgSNNTSEDT7KpcH-38" value="" style="curved=1;startArrow=none;endArrow=block;exitX=0.76;exitY=0;entryX=1;entryY=0.86;rounded=0;" edge="1" parent="1" source="LBzzMZgSNNTSEDT7KpcH-25" target="LBzzMZgSNNTSEDT7KpcH-22">
          <mxGeometry relative="1" as="geometry">
            <Array as="points">
              <mxPoint x="794" y="1157" />
              <mxPoint x="794" y="780" />
            </Array>
          </mxGeometry>
        </mxCell>
      </root>
    </mxGraphModel>
  </diagram>
</mxfile>
